<svg version="1.0" viewBox="0 0 51.089 40.821" xmlns="http://www.w3.org/2000/svg" xmlns:xlink="http://www.w3.org/1999/xlink">
 <defs>
  <linearGradient id="linearGradient4294">
   <stop stop-color="#fff" stop-opacity=".668" offset="0"/>
   <stop stop-color="#fff" stop-opacity="0" offset="1"/>
  </linearGradient>
  <filter id="filter4570" x="-.069437" y="-.10464" width="1.1389" height="1.2093">
   <feGaussianBlur stdDeviation="1.2845965"/>
  </filter>
  <filter id="filter4281">
   <feGaussianBlur stdDeviation="0.30643689"/>
  </filter>
  <linearGradient id="linearGradient3173" x1="-81.671" x2="-83.837" y1="-10.987" y2="190.88" gradientTransform="matrix(-.45265 0 0 .34323 -102.85 29.094)" gradientUnits="userSpaceOnUse" xlink:href="#linearGradient4294"/>
  <linearGradient id="linearGradient3177" x1="-81.671" x2="-83.837" y1="-10.987" y2="190.88" gradientTransform="matrix(-.44474 0 0 .34104 -102.29 29.19)" gradientUnits="userSpaceOnUse" xlink:href="#linearGradient4294"/>
  <linearGradient id="linearGradient3196" x1="-79.732" x2="-80.913" y1="63.817" y2="57.477" gradientTransform="matrix(1.3041 0 0 -1 29.573 119.84)" gradientUnits="userSpaceOnUse">
   <stop stop-color="#b1883f" offset="0"/>
   <stop stop-color="#b1883f" stop-opacity="0" offset="1"/>
  </linearGradient>
  <filter id="filter4041" x="-.029388" y="-.048659" width="1.0588" height="1.0973">
   <feGaussianBlur stdDeviation="8.2808345"/>
  </filter>
  <radialGradient id="radialGradient3207" cx="335.28" cy="342.66" r="128.34" gradientTransform="matrix(1.3654 .81258 -.23374 .39276 -33.913 -36.513)" gradientUnits="userSpaceOnUse">
   <stop stop-color="#ac9877" stop-opacity="0" offset="0"/>
   <stop stop-color="#ac9877" offset="1"/>
  </radialGradient>
  <radialGradient id="radialGradient3210" cx="429.06" cy="193.36" r="115.33" gradientTransform="matrix(1.3262 .75667 -.23767 .41658 -86.795 -211.57)" gradientUnits="userSpaceOnUse">
   <stop stop-color="#b29b7a" offset="0"/>
   <stop stop-color="#b29b7a" offset=".75"/>
   <stop stop-color="#b29b7a" stop-opacity="0" offset="1"/>
  </radialGradient>
  <linearGradient id="linearGradient3212" x1="450.34" x2="434.04" y1="174.51" y2="202.85" gradientUnits="userSpaceOnUse">
   <stop stop-color="#797265" offset="0"/>
   <stop stop-color="#797265" stop-opacity="0" offset="1"/>
  </linearGradient>
  <radialGradient id="radialGradient3214" cx="334.72" cy="404.74" r="134.42" gradientTransform="matrix(1.4233 .83556 -.10251 .17462 -104.37 22.232)" gradientUnits="userSpaceOnUse">
   <stop stop-color="#ccb986" stop-opacity="0" offset="0"/>
   <stop stop-color="#c3ad70" offset=".5"/>
   <stop stop-color="#ccb986" stop-opacity="0" offset="1"/>
  </radialGradient>
  <radialGradient id="radialGradient3216" cx="389.15" cy="296.44" r="145.3" gradientTransform="matrix(1.2618 .69454 -.095713 .17388 -73.927 -49.291)" gradientUnits="userSpaceOnUse">
   <stop stop-color="#c4a361" stop-opacity="0" offset="0"/>
   <stop stop-color="#c4a361" offset=".5"/>
   <stop stop-color="#c4a361" stop-opacity="0" offset="1"/>
  </radialGradient>
  <radialGradient id="radialGradient3218" cx="1143" cy="629.84" r="184.27" gradientTransform="scale(1.0677 .93656)" gradientUnits="userSpaceOnUse">
   <stop stop-color="#fff" stop-opacity="0" offset="0"/>
   <stop stop-color="#3f3f3f" stop-opacity=".070588" offset=".5"/>
   <stop stop-opacity=".3299" offset=".78"/>
   <stop stop-opacity=".52157" offset=".93"/>
   <stop stop-opacity=".65098" offset="1"/>
  </radialGradient>
  <filter id="filter4060" x="-.014136" y="-.078748" width="1.0283" height="1.1575">
   <feGaussianBlur stdDeviation="0.31517222"/>
  </filter>
 </defs>
 <g transform="translate(110.04 -53.811)">
  <g transform="translate(2.2649 -10.23)" filter="url(#filter4570)" opacity=".59062">
   <path d="m-83.996 77.912-18.279-4.2123-0.11527 24.395 18.346 4.5518 0.04774-24.735z"/>
   <path d="m-83.487 77.915 25.334-4.6402 0.16301 24.826-25.497 4.638v-24.824z"/>
  </g>
  <g>
   <path d="m-73.933 56.412 8.8027 5.435 18.623 5.6247-9.5681-6.8539-17.858-4.2058z" fill="#b1883f" fill-rule="evenodd" stroke="#746137" stroke-linejoin="round" stroke-width="1px"/>
   <path d="m-74.797 56.233-25.674 4.7118 18.901 4.2364 25.653-4.5557-18.879-4.3926z" fill="#82642f" stroke="#746137" stroke-linecap="square" stroke-linejoin="round"/>
   <path d="m-98.604 61.236s23.976-4.2426 23.976-4.2426l15.569 3.6605c-18.583 4.5-23.244-1.5429-39.545 0.58211z" fill="url(#linearGradient3196)" fill-rule="evenodd"/>
  </g>
  <g transform="translate(6.5407 -6.8943)">
   <g transform="matrix(.023312 -.051194 .051194 .023312 -108.83 81.645)" filter="url(#filter4041)" opacity=".7127">
    <g>
     <path transform="matrix(.75728 .43721 -.45431 .78689 -286.12 -691.88)" d="m1417 589.88c0 95.227-88.019 172.42-196.6 172.42-108.58 0-196.6-77.197-196.6-172.42s88.019-172.42 196.6-172.42c108.58 0 196.6 77.197 196.6 172.42z"/>
     <path d="m202.72 299.45c5.6705 123.1 145.68 204.42 256.68 147.82-94.183-28.849-186.53-81.499-256.68-147.82z" fill-rule="evenodd"/>
     <path d="m377.88 147.06c63.942 9.4651 100.84 40.672 125.78 72.637 14.473 17.976 27.185 45.096 30.958 67.939-80.4-14.994-172.49-64.268-230.65-133.48 22.796-7.3719 47.946-10.623 73.913-7.0914z"/>
     <path d="m376.8 146.93c34.924 39.032 83.749 65.972 128.66 75.07-36.835-47.564-81.523-69.486-128.66-75.07z" fill-rule="evenodd"/>
     <g>
      <path d="m202.58 285.35c77.22 71.754 165.62 125.7 268.74 155.13-3.5622 2.5661-7.5682 4.5088-11.602 6.6191-96.053-28.958-183.9-79.618-257.06-148.23-0.26992-5.5741-0.19828-8.5328-0.0765-13.514z"/>
      <path d="m248.89 186.52c66.972 74.02 197.13 152.33 285.13 164.75-0.588 2.4498-1.2354 4.8652-1.8826 7.2808-88.661-12.243-221.36-91.455-288.71-166.69 1.8076-1.7889 3.5914-3.5915 5.4702-5.3393z"/>
      <path transform="matrix(.75728 .43721 -.45431 .78689 -286.12 -691.88)" d="m1417 589.88c0 95.227-88.019 172.42-196.6 172.42-108.58 0-196.6-77.197-196.6-172.42s88.019-172.42 196.6-172.42c108.58 0 196.6 77.197 196.6 172.42z"/>
     </g>
    </g>
    <g transform="matrix(.77891 .4497 -.4497 .77891 -335.42 -714.23)">
     <path d="m1073.3 517.75c-154.99 12.367-263.84 41.366-263.84 75.125 0 44.988 193.31 81.5 431.5 81.5 238.19 2e-5 431.53-36.512 431.53-81.5 1e-4 -32.914-103.7-61.233-252.53-74.094 0.2794 0.57029 0.4774 1.1766 0.75 1.75 143.28 12.746 242.78 40.185 242.78 72.062 1e-4 43.999-189.08 79.719-422.03 79.719-232.95 2e-5 -422-35.72-422-79.719 0-32.645 104.18-60.681 253.03-73 0.29-0.60342 0.5157-1.2448 0.8126-1.8438z"/>
     <path d="m1072.3 520.06c-147.52 12.305-250.69 40.131-250.69 72.531 0 43.778 188.1 79.312 419.88 79.312 231.78 2e-5 419.91-35.535 419.91-79.312 0-31.635-98.475-58.898-240.44-71.625 1.4053 2.9791 2.7803 5.9704 4 9.0312 116.48 12.214 195.47 35.664 195.47 62.594 0 39.505-169.78 71.562-378.94 71.562-209.16-1e-5 -378.91-32.058-378.91-71.562 1e-5 -27.707 83.656-51.703 205.69-63.594 1.2331-3.0426 2.6291-5.9954 4.0313-8.9375z"/>
     <path d="m1061.4 550.09c-65.976 9.9877-108.34 25.3-108.34 42.5 0 30.076 129.23 54.469 288.47 54.469 159.24-1e-5 288.5-24.393 288.5-54.469 0-16.287-38.109-30.857-98.156-40.844 0.9533 3.9606 1.8108 7.9638 2.4687 12.031 33.263 7.9267 53.281 17.921 53.281 28.812-1e-4 25.656-110.26 46.469-246.09 46.469-135.83-1e-5 -246.06-20.813-246.06-46.469 0-11.956 24.154-22.823 63.469-31.062 0.6948-3.8594 1.5111-7.6803 2.4688-11.438z" fill-opacity=".72973"/>
     <path d="m1067.4 530.84c-116.78 11.778-196.34 35.014-196.34 61.75 0 38.621 165.93 69.969 370.41 69.969 204.48-1e-5 370.44-31.348 370.44-69.969 0-25.934-75.013-48.54-186.09-60.625 2.4557 6.4132 4.3764 13.036 6 19.781 60.047 9.987 98.156 24.557 98.156 40.844 1e-4 30.076-129.26 54.469-288.5 54.469-159.24-1e-5 -288.47-24.393-288.47-54.469-1e-5 -17.2 42.368-32.512 108.34-42.5 1.6764-6.5767 3.633-13.035 6.0625-19.25z"/>
    </g>
   </g>
   <g transform="matrix(.023312 -.051194 .051194 .023312 -109.54 80.408)">
    <g>
     <path transform="matrix(.75728 .43721 -.45431 .78689 -286.12 -691.88)" d="m1417 589.88c0 95.227-88.019 172.42-196.6 172.42-108.58 0-196.6-77.197-196.6-172.42s88.019-172.42 196.6-172.42c108.58 0 196.6 77.197 196.6 172.42z" fill="#e7c278"/>
     <path d="m202.72 299.45c5.6705 123.1 145.68 204.42 256.68 147.82-94.183-28.849-186.53-81.499-256.68-147.82z" fill="url(#radialGradient3207)" fill-rule="evenodd"/>
     <path d="m377.88 147.06c63.942 9.4651 100.84 40.672 125.78 72.637 14.473 17.976 27.185 45.096 30.958 67.939-80.4-14.994-172.49-64.268-230.65-133.48 22.796-7.3719 47.946-10.623 73.913-7.0914z" fill="url(#radialGradient3210)"/>
     <path d="m376.8 146.93c34.924 39.032 83.749 65.972 128.66 75.07-36.835-47.564-81.523-69.486-128.66-75.07z" fill="url(#linearGradient3212)" fill-rule="evenodd"/>
     <path d="m202.58 285.35c77.22 71.754 165.62 125.7 268.74 155.13-3.5622 2.5661-7.5682 4.5088-11.602 6.6191-96.053-28.958-183.9-79.618-257.06-148.23-0.26992-5.5741-0.19828-8.5328-0.0765-13.514z" fill="url(#radialGradient3214)"/>
     <path d="m248.89 186.52c66.972 74.02 197.13 152.33 285.13 164.75-0.588 2.4498-1.2354 4.8652-1.8826 7.2808-88.661-12.243-221.36-91.455-288.71-166.69 1.8076-1.7889 3.5914-3.5915 5.4702-5.3393z" fill="url(#radialGradient3216)"/>
    </g>
    <path transform="matrix(.75728 .43721 -.45431 .78689 -286.12 -691.88)" d="m1417 589.88c0 95.227-88.019 172.42-196.6 172.42-108.58 0-196.6-77.197-196.6-172.42s88.019-172.42 196.6-172.42c108.58 0 196.6 77.197 196.6 172.42z" fill="url(#radialGradient3218)"/>
    <g transform="matrix(.77891 .4497 -.4497 .77891 -335.42 -714.23)">
     <path d="m1073.3 517.75c-154.99 12.367-263.84 41.366-263.84 75.125 0 44.988 193.31 81.5 431.5 81.5 238.19 2e-5 431.53-36.512 431.53-81.5 1e-4 -32.914-103.7-61.233-252.53-74.094 0.2794 0.57029 0.4774 1.1766 0.75 1.75 143.28 12.746 242.78 40.185 242.78 72.062 1e-4 43.999-189.08 79.719-422.03 79.719-232.95 2e-5 -422-35.72-422-79.719 0-32.645 104.18-60.681 253.03-73 0.29-0.60342 0.5157-1.2448 0.8126-1.8438z" fill="#ada293"/>
     <path d="m1072.3 520.06c-147.52 12.305-250.69 40.131-250.69 72.531 0 43.778 188.1 79.312 419.88 79.312 231.78 2e-5 419.91-35.535 419.91-79.312 0-31.635-98.475-58.898-240.44-71.625 1.4053 2.9791 2.7803 5.9704 4 9.0312 116.48 12.214 195.47 35.664 195.47 62.594 0 39.505-169.78 71.562-378.94 71.562-209.16-1e-5 -378.91-32.058-378.91-71.562 1e-5 -27.707 83.656-51.703 205.69-63.594 1.2331-3.0426 2.6291-5.9954 4.0313-8.9375z" fill="#ada393"/>
     <path d="m1061.4 550.09c-65.976 9.9877-108.34 25.3-108.34 42.5 0 30.076 129.23 54.469 288.47 54.469 159.24-1e-5 288.5-24.393 288.5-54.469 0-16.287-38.109-30.857-98.156-40.844 0.9533 3.9606 1.8108 7.9638 2.4687 12.031 33.263 7.9267 53.281 17.921 53.281 28.812-1e-4 25.656-110.26 46.469-246.09 46.469-135.83-1e-5 -246.06-20.813-246.06-46.469 0-11.956 24.154-22.823 63.469-31.062 0.6948-3.8594 1.5111-7.6803 2.4688-11.438z" fill="#343423" fill-opacity=".72973"/>
     <path d="m1067.4 530.84c-116.78 11.778-196.34 35.014-196.34 61.75 0 38.621 165.93 69.969 370.41 69.969 204.48-1e-5 370.44-31.348 370.44-69.969 0-25.934-75.013-48.54-186.09-60.625 2.4557 6.4132 4.3764 13.036 6 19.781 60.047 9.987 98.156 24.557 98.156 40.844 1e-4 30.076-129.26 54.469-288.5 54.469-159.24-1e-5 -288.47-24.393-288.47-54.469-1e-5 -17.2 42.368-32.512 108.34-42.5 1.6764-6.5767 3.633-13.035 6.0625-19.25z" fill="#d8d4c1"/>
    </g>
   </g>
  </g>
  <g>
   <path d="m-81.924 65.447-18.279-4.2123-0.11527 24.395 18.346 4.5518 0.04774-24.735z" fill="#c7a465" stroke="#746137" stroke-linecap="square" stroke-linejoin="round"/>
   <path d="m-82.588 65.774v12.886c-6.0035-18.914-17.315-12.179-16.854-16.775l16.854 3.8884z" fill="url(#linearGradient3177)" fill-rule="evenodd" opacity=".81172"/>
   <path d="m-81.415 65.45 25.334-4.6402 0.16301 24.826-25.497 4.638v-24.824z" fill="#c7a465" stroke="#746137" stroke-linecap="square" stroke-linejoin="round"/>
   <path d="m-89.984 74.818s8.1618-9.1558 8.1618-9.1558l-19.168-4.4194s-6.59 8.7763-6.59 8.7763 17.596 4.7989 17.596 4.7989z" fill="#b1883f" fill-rule="evenodd" stroke="#746137" stroke-linejoin="round" stroke-width="1px"/>
   <g transform="translate(.88021 2.1167)" filter="url(#filter4281)" opacity=".75"></g>
   <g transform="translate(-.14406 1.4583)" fill="#3092cf">
    <g transform="matrix(1.0472 -.18658 0 .95496 0 0)">
     <path d="m-59.96 75.147-1.5523-4.8449-6.9179 0.0099-1.2066 4.8488-4.2962 0.0062 5.7619-20.455 5.2021-0.0075 7.3052 20.436zm-2.6748-8.4647-1.4555-4.455c-0.06111-0.16704-0.15362-0.44083-0.27753-0.82138-0.12393-0.38052-0.25617-0.8005-0.39674-1.26-0.14058-0.45942-0.27438-0.92119-0.40138-1.3853-0.12703-0.46408-0.21944-0.85859-0.27723-1.1835-0.02904 0.20434-0.06812 0.44583-0.11727 0.72445-0.04917 0.27866-0.10686 0.57356-0.1731 0.8847-0.06626 0.31118-0.13471 0.62467-0.20535 0.94046-0.07066 0.31583-0.13743 0.61306-0.2003 0.89171-0.06289 0.27867-0.12011 0.52482-0.17166 0.73845-0.05157 0.21366-0.08918 0.37157-0.11284 0.47373l-1.1113 4.4587z" fill="#c49f5d"/>
     <path d="m-60.719 74.999-1.5523-4.8449-6.9179 0.0099-1.2066 4.8488-4.2962 0.0062 5.7619-20.455 5.2021-0.0075 7.3052 20.436zm-2.6748-8.4647-1.4555-4.455c-0.06111-0.16704-0.15362-0.44083-0.27753-0.82138-0.12393-0.38052-0.25617-0.8005-0.39674-1.26-0.14058-0.45942-0.27438-0.92119-0.40138-1.3853-0.12703-0.46408-0.21944-0.85859-0.27723-1.1835-0.02904 0.20434-0.06812 0.44583-0.11727 0.72445-0.04917 0.27866-0.10686 0.57356-0.1731 0.8847-0.06626 0.31118-0.13471 0.62467-0.20535 0.94046-0.07066 0.31583-0.13743 0.61306-0.2003 0.89171-0.06289 0.27867-0.12011 0.52482-0.17166 0.73845-0.05157 0.21366-0.08918 0.37157-0.11284 0.47373l-1.1113 4.4587z" fill="#785c2b"/>
     <path d="m-60.297 75.081-1.5523-4.8449-6.9179 0.0099-1.2066 4.8488-4.2962 0.0062 5.7619-20.455 5.2021-0.0075 7.3052 20.436zm-2.6748-8.4647-1.4555-4.455c-0.06111-0.16704-0.15362-0.44083-0.27753-0.82138-0.12393-0.38052-0.25617-0.8005-0.39674-1.26-0.14058-0.45942-0.27438-0.92119-0.40138-1.3853-0.12703-0.46408-0.21944-0.85859-0.27723-1.1835-0.02904 0.20434-0.06812 0.44583-0.11727 0.72445-0.04917 0.27866-0.10686 0.57356-0.1731 0.8847-0.06626 0.31118-0.13471 0.62467-0.20535 0.94046-0.07066 0.31583-0.13743 0.61306-0.2003 0.89171-0.06289 0.27867-0.12011 0.52482-0.17166 0.73845-0.05157 0.21366-0.08918 0.37157-0.11284 0.47373l-1.1113 4.4587z" fill="#ac853f"/>
    </g>
   </g>
   <path d="m-80.905 65.925v12.969c4.3495 3.3356 24.636-21.611 24.381 1.6706l-0.01035-19.056-24.37 4.4166z" fill="url(#linearGradient3173)" fill-rule="evenodd" opacity=".81172"/>
  </g>
  <g transform="translate(.0058151 -7)" fill="#3092cf">
   <path d="m-60.812 92.031a0.54425 0.54425 0 0 0-0.375 0.53125v1.5625a0.54425 0.54425 0 0 0 0.15625 0.375 0.54425 0.54425 0 0 0 0 0.03125 0.54425 0.54425 0 0 0-0.15625 0.375v6a0.54425 0.54425 0 0 0 0.53125 0.53125h1.9062a0.54425 0.54425 0 0 0 0.53125-0.53125v-6a0.54425 0.54425 0 0 0-0.15625-0.375 0.54425 0.54425 0 0 0 0-0.03125 0.54425 0.54425 0 0 0 0.15625-0.375v-1.5625a0.54425 0.54425 0 0 0-0.53125-0.53125h-1.9062a0.54425 0.54425 0 0 0-0.15625 0zm-39.625 0.34375a0.54425 0.54425 0 0 0-0.34375 0.34375l-2.9688 8a0.54425 0.54425 0 0 0 0.5 0.71875h2.0625a0.54425 0.54425 0 0 0 0.5-0.34375l0.40625-1.0938h2.4688l0.375 1.0938a0.54425 0.54425 0 0 0 0.5 0.34375h2.0938a0.54425 0.54425 0 0 0 0.46875-0.25 0.54425 0.54425 0 0 0 0.09375 0.0312c0.45217 0.12661 0.90185 0.21595 1.3438 0.28125 0.0099 1e-3 0.02138-1e-3 0.03125 0 0.44454 0.0656 0.89802 0.0937 1.3125 0.0937 0.99506 0 1.8174-0.13973 2.4375-0.5625 0.61458-0.41904 0.90624-1.1124 0.90625-1.875-7e-6 -0.70711-0.18431-1.3575-0.6875-1.7812-0.23463-0.19758-0.51774-0.33328-0.84375-0.4375 0.1392 0.05041 0.26569 0.06633 0.40625 0.125a0.54425 0.54425 0 0 0 0.75-0.5v-0.125a0.54425 0.54425 0 0 0 0.53125 0.375h0.4375v2c-1e-6 0.83274 0.15314 1.5228 0.625 2 0.46457 0.45936 1.136 0.625 1.9688 0.625h1.6562a0.54425 0.54425 0 0 0 0.53125-0.53125v-1.375a0.54425 0.54425 0 0 0-0.53125-0.53115h-0.96875c-0.27128 1e-6 -0.39604-0.08019-0.3125 0 0.12026 0.10862-2e-6 0.03319 0-0.1875v-2h1.4688a0.54425 0.54425 0 0 0 0.53125-0.53125v-1.375a0.54425 0.54425 0 0 0-0.53125-0.53125h-1.4688v-1.1875a0.54425 0.54425 0 0 0-0.53125-0.53125h-1.9062a0.54425 0.54425 0 0 0-0.53125 0.53125v1.1875h-0.4375a0.54425 0.54425 0 0 0-0.53125 0.53125 0.54425 0.54425 0 0 0-0.40625-0.34375c-0.4776-0.11939-0.93332-0.19351-1.3438-0.25-0.40153-0.05526-0.79196-0.09374-1.1875-0.09375-0.96725 6e-6 -1.7373 0.15707-2.3125 0.5625-0.57573 0.40585-0.875 1.0814-0.875 1.8438-1e-6 0.68687 0.18779 1.3284 0.6875 1.75 0.49492 0.41759 1.1883 0.6051 2.0938 0.71875l0.34375 0.03125c0.23888 0.02849 0.26082 0.04139 0.34375 0.0625-0.09716 0.02934-0.19815 0.0625-0.4375 0.0625-0.38769 1e-6 -0.77582-0.04466-1.125-0.125-0.3673-0.08526-0.68505-0.20675-1.0312-0.375a0.54425 0.54425 0 0 0-0.78125 0.5v0.625l-2.6562-7.1562a0.54425 0.54425 0 0 0-0.5-0.34375h-2.4688a0.54425 0.54425 0 0 0-0.15625 0zm31.312 0a0.54425 0.54425 0 0 0-0.375 0.53125v8a0.54425 0.54425 0 0 0 0.53125 0.53125h3.4375c1.1296 0 2.0223-0.17332 2.6875-0.65625 0.65352-0.47447 1.0312-1.2468 1.0312-2.1562-8e-6 -0.59946-0.15722-1.1493-0.46875-1.5938-0.13927-0.19865-0.30703-0.35382-0.5-0.5 0.07263-0.07711 0.1905-0.09884 0.25-0.1875a0.54425 0.54425 0 0 0 0.03125 0c0.24451-0.36917 0.34374-0.83047 0.34375-1.3125-8e-6 -0.86306-0.30998-1.6202-0.96875-2.0625-0.65276-0.44142-1.5516-0.59374-2.7188-0.59375h-3.125a0.54425 0.54425 0 0 0-0.15625 0zm-9 1.8438c-0.52762 7e-6 -1.026 0.11058-1.4375 0.34375-0.03684 0.0207-0.05787 0.07109-0.09375 0.09375a0.54425 0.54425 0 0 0-0.46875-0.28125h-1.9375a0.54425 0.54425 0 0 0-0.53125 0.53125v6a0.54425 0.54425 0 0 0 0.53125 0.53125h1.9375a0.54425 0.54425 0 0 0 0.53125-0.53125v-2.75c-2e-6 -0.50436 0.12596-0.84658 0.28125-1.0312 0.16759-0.19887 0.33448-0.28125 0.71875-0.28125 0.11857 0 0.24426 0.03124 0.375 0.0625 0.15448 0.03287 0.29361 0.07228 0.40625 0.125a0.54425 0.54425 0 0 0 0.375 0.03125c-0.05509 0.28193-0.15625 0.53472-0.15625 0.84375 0 1.0955 0.32609 2.0751 1.0312 2.75 0.70913 0.67454 1.6851 0.9375 2.8125 0.9375 1.1241 0 2.1065-0.25769 2.8125-0.9375 0.70515-0.67488 1.0312-1.6545 1.0312-2.75-8e-6 -1.0955-0.33342-2.0509-1.0312-2.7188-0.69867-0.67278-1.6774-0.96874-2.8125-0.96875-1.1383 7e-6 -2.1107 0.3012-2.8125 0.96875-0.22356 0.21396-0.34859 0.51494-0.5 0.78125v-1.1562a0.54425 0.54425 0 0 0-0.46875-0.53125c-0.06471-0.0081-0.11715-0.04672-0.3125-0.0625-0.01611-0.0015-0.01627 9.61e-4 -0.03125 0-0.11986-0.0077-0.22852 2e-6 -0.25 0zm25.156 0c-0.4692 7e-6 -0.91218 0.10575-1.3125 0.3125v-0.03125c-0.07478 0.0378-0.11504 0.14251-0.1875 0.1875a0.54425 0.54425 0 0 0-0.5-0.3125h-1.9062a0.54425 0.54425 0 0 0-0.53125 0.53125v6a0.54425 0.54425 0 0 0 0.53125 0.53125h1.9062a0.54425 0.54425 0 0 0 0.53125-0.53125v-2.9375c-3e-6 -0.47224 0.1121-0.78345 0.25-0.96875 0.12954-0.1761 0.27214-0.25 0.53125-0.25 0.1161 3e-6 0.1671 0.01992 0.1875 0.03125 0.03721 0.01964 0.01395 0.01285 0.0625 0.09375-0.0085-0.01389 0.04695 0.07622 0.0625 0.21875 0.0155 0.12179 0.03124 0.51617 0.03125 1.0312v2.1875 0.59375a0.54425 0.54425 0 0 0 0.53125 0.53125h1.9375a0.54425 0.54425 0 0 0 0.53125-0.53125v-3.6562c-8e-6 -0.88872-0.18452-1.6317-0.65625-2.1875-0.46969-0.55891-1.185-0.84374-2-0.84375zm-13.406 0.625h0.625c0.24595 5e-6 0.37728 0.06848 0.40625 0.09375 0.03853 0.03279 0.0625 0.05033 0.0625 0.21875-3e-6 0.17339-0.02058 0.18308-0.0625 0.21875-0.03309 0.02816-0.1643 0.09375-0.40625 0.09375h-0.625v-0.625zm-32.656 1.5625 0.34375 1.0312h-0.71875l0.375-1.0312zm7.5938 0.15625c0.29867 4e-6 0.58674 0.04633 0.9375 0.125 0.14856 0.03332 0.33284 0.10163 0.5 0.15625-0.34366-0.08905-0.74017-0.13003-1.1875-0.1875h-0.03125l-0.28125-0.0625a0.54425 0.54425 0 0 0-0.03125 0c0.04506-3e-3 0.04194-0.03125 0.09375-0.03125zm17.688 0.09375c0.27998 3e-6 0.40511 0.07504 0.53125 0.25 0.11933 0.1636 0.21874 0.48018 0.21875 1-5e-6 0.51983-0.10566 0.87437-0.21875 1.0312-0.11643 0.15961-0.22732 0.21875-0.53125 0.21875-0.31304 1e-6 -0.40553-0.04912-0.53125-0.21875-0.12726-0.17652-0.25-0.53109-0.25-1.0312-3e-6 -0.50016 0.11635-0.81677 0.25-1 0.13548-0.18494 0.24176-0.25 0.53125-0.25zm7.375 1.2812h0.6875c0.35462 3e-6 0.53229 0.07308 0.59375 0.125 0.06789 0.05619 0.125 0.13692 0.125 0.375-4e-6 0.25113-0.06869 0.35948-0.125 0.40625-0.0591 0.04993-0.24328 0.125-0.59375 0.125h-0.6875v-1.0312z" fill="#020508" filter="url(#filter4060)" opacity=".7037" xlink:href="#path4027"/>
   <path id="path4027" d="m-50.834 97.253v3.6644h-1.9343v-0.5964-2.2083c-5e-6 -0.51939-0.01254-0.87759-0.03761-1.0746-0.0215-0.19701-0.0609-0.34208-0.11821-0.43521-0.07523-0.12537-0.17731-0.22208-0.30626-0.29014-0.12896-0.07164-0.27582-0.10746-0.44059-0.10746-0.40119 4e-6 -0.7164 0.15582-0.94565 0.46745-0.22925 0.30806-0.34388 0.7361-0.34387 1.2841v2.9605h-1.9235v-6.0178h1.9235v0.88117c0.29014-0.35103 0.59819-0.60894 0.92416-0.77371 0.32596-0.16835 0.68595-0.25252 1.08-0.25253 0.6949 6e-6 1.2215 0.21314 1.5797 0.63939 0.36178 0.42626 0.54267 1.0459 0.54267 1.8591m-9.8326-2.3534h1.9235v6.0178h-1.9235v-6.0178m0-2.3426h1.9235v1.5689h-1.9235v-1.5689m-5.0829 3.4441c0.32596 5e-6 0.57312-0.07164 0.74147-0.21492 0.16835-0.14328 0.25253-0.35461 0.25253-0.63401-5e-6 -0.27581-0.08418-0.48536-0.25253-0.62864-0.16836-0.14686-0.41552-0.22029-0.74147-0.22029h-1.1444v1.6979h1.1444m0.06985 3.5086c0.41551 1e-6 0.72714-0.08776 0.9349-0.26328 0.21133-0.17552 0.317-0.44058 0.31701-0.7952-5e-6 -0.34745-0.10388-0.60715-0.31163-0.77908-0.20776-0.17552-0.52118-0.26327-0.94028-0.26328h-1.2143v2.1008h1.2143m1.9235-2.8853c0.44416 0.12896 0.78803 0.36716 1.0316 0.71461 0.24357 0.34746 0.36536 0.77371 0.36536 1.2788-7e-6 0.77371-0.26149 1.3504-0.78446 1.7301-0.52298 0.37969-1.3182 0.56954-2.3856 0.56954h-3.4333v-8.0219h3.1056c1.114 8e-6 1.9199 0.16836 2.4178 0.50506 0.50147 0.33672 0.75221 0.8758 0.75222 1.6173-7e-6 0.39044-0.09135 0.72357-0.27402 0.99938-0.18269 0.27224-0.44776 0.47462-0.7952 0.60715m-9.9938-0.49432c-0.42626 4e-6 -0.75222 0.15403-0.97789 0.46208-0.22209 0.30447-0.33313 0.74506-0.33313 1.3218-3e-6 0.5767 0.11104 1.0191 0.33313 1.3271 0.22566 0.30447 0.55162 0.45671 0.97789 0.4567 0.41909 1e-6 0.73968-0.15223 0.96177-0.4567 0.22208-0.30805 0.33312-0.75043 0.33313-1.3271-5e-6 -0.5767-0.11105-1.0173-0.33313-1.3218-0.22209-0.30805-0.54268-0.46207-0.96177-0.46208m0-1.3755c1.0352 6e-6 1.8429 0.2794 2.4232 0.83819 0.58386 0.5588 0.87579 1.3325 0.8758 2.3211-7e-6 0.98863-0.29194 1.7623-0.8758 2.3211-0.58029 0.55879-1.388 0.83819-2.4232 0.83819-1.0388 0-1.8519-0.2794-2.4393-0.83819-0.58387-0.55879-0.8758-1.3325-0.8758-2.3211 0-0.98863 0.29193-1.7623 0.8758-2.3211 0.58745-0.55879 1.4006-0.83818 2.4393-0.83819m-3.831 1.7838c-0.16836-0.0788-0.33671-0.13611-0.50506-0.17194-0.16478-0.0394-0.33134-0.0591-0.49969-0.0591-0.49432 4e-6 -0.8758 0.1594-1.1444 0.4782-0.26507 0.31522-0.3976 0.76834-0.3976 1.3594v2.7725h-1.9235v-6.0178h1.9235v0.98863c0.24716-0.39402 0.53013-0.68058 0.84893-0.85968 0.32238-0.18268 0.70744-0.27402 1.1552-0.27402 0.06447 6e-6 0.13432 0.0036 0.20955 0.01075 0.07522 0.0036 0.18447 0.01433 0.32775 0.03224l0.0054 1.7409m-7.6351-3.3474v1.7086h1.9826v1.3755h-1.9826v2.5522c-3e-6 0.2794 0.05552 0.46924 0.16656 0.56954 0.11104 0.09672 0.33133 0.14507 0.66088 0.14507h0.98863v1.3755h-1.6495c-0.75939 0-1.2985-0.15761-1.6173-0.47283-0.31522-0.31879-0.47282-0.85788-0.47282-1.6173v-2.5522h-0.95639v-1.3755h0.95639v-1.7086h1.9235m-3.9545 1.8967v1.4615c-0.41194-0.17193-0.80954-0.30088-1.1928-0.38686-0.38328-0.08596-0.74506-0.12895-1.0853-0.12895-0.36537 5e-6 -0.6376 0.04657-0.8167 0.1397-0.17552 0.08955-0.26328 0.22925-0.26328 0.41909-2e-6 0.15403 0.06627 0.27224 0.1988 0.35462 0.13611 0.08239 0.3779 0.14328 0.72536 0.18268l0.3385 0.04836c0.98504 0.12537 1.6477 0.33134 1.988 0.6179 0.34028 0.28656 0.51043 0.7361 0.51044 1.3486-6e-6 0.64118-0.23642 1.123-0.70924 1.4453-0.47283 0.32238-1.1785 0.48357-2.117 0.48357-0.3976 0-0.80954-0.0322-1.2358-0.0967-0.42268-0.0609-0.85789-0.15402-1.3056-0.27939v-1.4615c0.38327 0.18626 0.7755 0.32596 1.1767 0.41909 0.40476 0.09313 0.8149 0.1397 1.2304 0.1397 0.37611 1e-6 0.65908-0.05194 0.84893-0.15582 0.18984-0.10388 0.28476-0.2579 0.28477-0.46208-4e-6 -0.17193-0.06627-0.2991-0.1988-0.38148-0.12896-0.08597-0.38865-0.15223-0.77908-0.1988l-0.3385-0.04298c-0.8561-0.10746-1.4561-0.30626-1.8-0.5964-0.34387-0.29014-0.51581-0.73072-0.51581-1.3218-1e-6 -0.63759 0.2185-1.1104 0.65551-1.4185 0.437-0.30805 1.1068-0.46207 2.0095-0.46208 0.35461 6e-6 0.72714 0.02687 1.1176 0.0806 0.39043 0.05374 0.8149 0.13791 1.2734 0.25253m-8.2583 4.3682h-3.2345l-0.51044 1.4615h-2.0794l2.9713-8.0219h2.4662l2.9713 8.0219h-2.0794l-0.50506-1.4615m-2.7187-1.4883h2.1976l-1.0961-3.1916-1.1015 3.1916"/>
  </g>
 </g>
</svg>
